<?xml version="1.0" encoding="UTF-8" standalone="no"?>
<!-- Created with Inkscape (http://www.inkscape.org/) -->

<svg
   xmlns:dc="http://purl.org/dc/elements/1.1/"
   xmlns:cc="http://creativecommons.org/ns#"
   xmlns:rdf="http://www.w3.org/1999/02/22-rdf-syntax-ns#"
   xmlns:svg="http://www.w3.org/2000/svg"
   xmlns="http://www.w3.org/2000/svg"
   xmlns:sodipodi="http://sodipodi.sourceforge.net/DTD/sodipodi-0.dtd"
   xmlns:inkscape="http://www.inkscape.org/namespaces/inkscape"
   id="svg2"
   version="1.1"
   inkscape:version="0.48.4 r9939"
   width="48"
   height="48"
   xml:space="preserve"
   sodipodi:docname="MSX.svg"
   inkscape:export-filename="MSX_48x48.png"
   inkscape:export-xdpi="90"
   inkscape:export-ydpi="90"><metadata
     id="metadata8"><rdf:RDF><cc:Work
         rdf:about=""><dc:format>image/svg+xml</dc:format><dc:type
           rdf:resource="http://purl.org/dc/dcmitype/StillImage" /><dc:title></dc:title></cc:Work></rdf:RDF></metadata><defs
     id="defs6"><clipPath
       clipPathUnits="userSpaceOnUse"
       id="clipPath20"><path
         d="M 0,612 792,612 792,0 0,0 0,612 z"
         id="path22"
         inkscape:connector-curvature="0" /></clipPath></defs><sodipodi:namedview
     pagecolor="#ffffff"
     bordercolor="#666666"
     borderopacity="1"
     objecttolerance="10"
     gridtolerance="10"
     guidetolerance="10"
     inkscape:pageopacity="0"
     inkscape:pageshadow="2"
     inkscape:window-width="1441"
     inkscape:window-height="904"
     id="namedview4"
     showgrid="false"
     fit-margin-top="0"
     fit-margin-left="0"
     fit-margin-right="0"
     fit-margin-bottom="0"
     inkscape:zoom="4.24"
     inkscape:cx="9.5768565"
     inkscape:cy="35.728703"
     inkscape:window-x="46"
     inkscape:window-y="23"
     inkscape:window-maximized="0"
     inkscape:current-layer="g10" /><g
     id="g10"
     inkscape:groupmode="layer"
     inkscape:label="MSX"
     transform="matrix(1.25,0,0,-1.25,-46.601247,-20.125625)"><path
   d="m 37.280998,-54.5005 38.4,0 0,38.4 -38.4,0 0,-38.4 z"
   style="fill:#000080;fill-opacity:1;fill-rule:nonzero;stroke:none"
   id="path12"
   inkscape:connector-curvature="0" /><path
   inkscape:connector-curvature="0"
   id="path3009"
   style="fill:#0505b3;fill-opacity:1;fill-rule:nonzero;stroke:none"
   d="m 38.615161,-53.166337 35.731674,0 0,35.731674 -35.731674,0 0,-35.731674 z" /><g
   id="g3022"
   transform="matrix(0.05333334,0,0,0.05333334,35.292675,-51.593809)"><path
     inkscape:connector-curvature="0"
     id="path14"
     style="fill:#000000;fill-opacity:1;fill-rule:nonzero;stroke:none"
     d="m 65.25,428.937 664.062,0 0,-246.875 -664.062,0 0,246.875 z" /><g
     id="g16"><g
       clip-path="url(#clipPath20)"
       id="g18"><g
         transform="translate(119.1563,210.1875)"
         id="g24"><path
           inkscape:connector-curvature="0"
           id="path26"
           style="fill:#ffffff;fill-opacity:1;fill-rule:nonzero;stroke:none"
           d="M 0,0 50,0 72.656,89.892 95.313,0 135.937,0 158.594,89.892 181.25,0 307.031,0 c 33.218,0 60.156,26.938 60.156,60.156 0,33.218 -26.938,60.157 -60.156,60.157 l -34.375,0 c -6.469,0 -11.719,4.906 -11.719,10.937 0,6.031 5.25,10.937 11.719,10.937 l 116.124,0 30.751,-41.781 L 346.875,0 410.937,0 451.562,56.142 492.187,0 556.25,0 483.594,100.406 550,190.625 l -64.063,0 -34.375,-45.938 -34.375,45.938 -147.656,0 c -33.218,0 -60.156,-26.938 -60.156,-60.156 0,-33.219 26.938,-60.156 60.156,-60.156 l 34.375,0 c 6.469,0 11.719,-4.907 11.719,-10.938 0,-6.031 -5.25,-10.937 -11.719,-10.937 l -84.953,0 -36.141,142.187 -45.312,0 -21.875,-85.234 -21.875,85.234 -45.312,0 L 0,0 z" /></g></g></g></g>









<rect
   style="fill:#e6e6e6;fill-opacity:1;stroke:none"
   id="rect3003"
   width="24.335417"
   height="12.207598"
   x="44.058414"
   y="15.676335"
   transform="scale(1,-1)"
   ry="0.75750804" /><rect
   style="fill:#333333;fill-opacity:1;stroke:none"
   id="rect3001"
   width="5.8703194"
   height="9.5392714"
   x="60.061676"
   y="17.143915"
   transform="scale(1,-1)"
   ry="0.029647458" /><text
   xml:space="preserve"
   style="font-size:14.81070232000000100px;font-style:normal;font-variant:normal;font-weight:normal;font-stretch:normal;text-align:start;line-height:100%;letter-spacing:0px;word-spacing:0px;writing-mode:lr-tb;text-anchor:start;fill:#ffffff;fill-opacity:1;stroke:none;font-family:TF Phethai;-inkscape-font-specification:TF Phethai"
   x="44.033649"
   y="51.306118"
   id="text3011"
   sodipodi:linespacing="100%"
   transform="scale(1,-1)"><tspan
     sodipodi:role="line"
     id="tspan3013"
     x="44.033649"
     y="51.306118">DISK</tspan></text>
</g></svg>